<svg xmlns="http://www.w3.org/2000/svg" viewBox="0 0 2156 46" width="2156" height="46"><path d="M16.76 31.76c-.619 0-1.227-.163-1.763-.473-.536-.31-.98-.756-1.289-1.293-.308-.536-.47-1.145-.468-1.764V5.11H0v26.2c0 3.926 1.561 7.696 4.338 10.472 2.776 2.777 6.546 4.338 10.472 4.338h6.65V31.76z" fill="#faa624"/><path d="M24.66 33.28h1.11s4.45.61 4.45-4.35V5.11" fill="none" stroke="#faa623" stroke-width="3" stroke-miterlimit="10"/><path d="M24.66 38.88H28s8.38.67 8.38-9.26V0" fill="none" stroke="#faa623" stroke-width="3" stroke-miterlimit="10"/><path d="M24.63 44.41h3.58s14.29.72 14.29-16V5.11" fill="none" stroke="#faa623" stroke-width="3" stroke-miterlimit="10"/><path d="M60.76 31.76c-.619 0-1.227-.163-1.763-.473-.536-.31-.98-.756-1.289-1.293-.308-.536-.47-1.145-.468-1.764V5.11H44v26.2c0 3.926 1.561 7.696 4.338 10.472 2.776 2.777 6.546 4.338 10.472 4.338h6.65V31.76z" fill="#faa624"/><path d="M68.66 33.28h1.11s4.45.61 4.45-4.35V5.11" fill="none" stroke="#faa623" stroke-width="3" stroke-dasharray="32.05608253902694,0.0557497087635267" stroke-dashoffset="32.056083" stroke-miterlimit="10"/><path d="M68.66 38.88H72s8.38.67 8.38-9.26V0" fill="none" stroke="#faa623" stroke-width="3" stroke-dasharray="47.08055801701573,0.08187923133394273" stroke-dashoffset="47.080558" stroke-miterlimit="10"/><path d="M68.63 44.41h3.58s14.29.72 14.29-16V5.11" fill="none" stroke="#faa623" stroke-width="3" stroke-dasharray="51.043149430597616,0.08877069466191143" stroke-dashoffset="51.043149" stroke-miterlimit="10"/><path d="M104.76 31.76c-.619 0-1.227-.163-1.763-.473-.536-.31-.98-.756-1.289-1.293-.308-.536-.47-1.145-.468-1.764V5.11H88v26.2c0 3.926 1.561 7.696 4.338 10.472 2.776 2.777 6.546 4.338 10.472 4.338h6.65V31.76z" fill="#faa624"/><path d="M112.66 33.28h1.11s4.45.61 4.45-4.35V5.11" fill="none" stroke="#faa623" stroke-width="3" stroke-dasharray="31.888833412736368,0.22299883505409968" stroke-dashoffset="31.888833" stroke-miterlimit="10"/><path d="M112.66 38.88H116s8.38.67 8.38-9.26V0" fill="none" stroke="#faa623" stroke-width="3" stroke-dasharray="46.83492032301392,0.3275169253357605" stroke-dashoffset="46.83492" stroke-miterlimit="10"/><path d="M112.63 44.41h3.58s14.29.72 14.29-16V5.11" fill="none" stroke="#faa623" stroke-width="3" stroke-dasharray="50.77683734661189,0.3550827786476343" stroke-dashoffset="50.776837" stroke-miterlimit="10"/><path d="M148.76 31.76c-.619 0-1.227-.163-1.763-.473-.536-.31-.98-.756-1.289-1.293-.308-.536-.47-1.145-.468-1.764V5.11H132v26.2c0 3.926 1.561 7.696 4.338 10.472 2.776 2.777 6.546 4.338 10.472 4.338h6.65V31.76z" fill="#faa624"/><path d="M156.66 33.28h1.11s4.45.61 4.45-4.35V5.11" fill="none" stroke="#faa623" stroke-width="3" stroke-dasharray="31.61008486891874,0.501747378871726" stroke-dashoffset="31.610085" stroke-miterlimit="10"/><path d="M156.66 38.88H160s8.38.67 8.38-9.26V0" fill="none" stroke="#faa623" stroke-width="3" stroke-dasharray="46.42552416634421,0.7369130820054637" stroke-dashoffset="46.425524" stroke-miterlimit="10"/><path d="M156.63 44.41h3.58s14.29.72 14.29-16V5.11" fill="none" stroke="#faa623" stroke-width="3" stroke-dasharray="50.33298387330235,0.7989362519571801" stroke-dashoffset="50.332984" stroke-miterlimit="10"/><path d="M192.76 31.76c-.619 0-1.227-.163-1.763-.473-.536-.31-.98-.756-1.289-1.293-.308-.536-.47-1.145-.468-1.764V5.11H176v26.2c0 3.926 1.561 7.696 4.338 10.472 2.776 2.777 6.546 4.338 10.472 4.338h6.65V31.76z" fill="#faa624"/><path d="M200.66 33.28h1.11s4.45.61 4.45-4.35V5.11" fill="none" stroke="#faa623" stroke-width="3" stroke-dasharray="31.219836907574063,0.8919953402164023" stroke-dashoffset="31.219837" stroke-miterlimit="10"/><path d="M200.66 38.88H204s8.38.67 8.38-9.26V0" fill="none" stroke="#faa623" stroke-width="3" stroke-dasharray="45.85236954700663,1.310067701343047" stroke-dashoffset="45.85237" stroke-miterlimit="10"/><path d="M200.63 44.41h3.58s14.29.72 14.29-16V5.11" fill="none" stroke="#faa623" stroke-width="3" stroke-dasharray="49.71158901066898,1.420331114590543" stroke-dashoffset="49.711589" stroke-miterlimit="10"/><path d="M236.76 31.76c-.619 0-1.227-.163-1.763-.473-.536-.31-.98-.756-1.289-1.293-.308-.536-.47-1.145-.468-1.764V5.11H220v26.2c0 3.926 1.561 7.696 4.338 10.472 2.776 2.777 6.546 4.338 10.472 4.338h6.65V31.76z" fill="#faa624"/><path d="M244.66 33.28h1.11s4.45.61 4.45-4.35V5.11" fill="none" stroke="#faa623" stroke-width="3" stroke-dasharray="30.71808952870234,1.3937427190881284" stroke-dashoffset="30.71809" stroke-miterlimit="10"/><path d="M244.66 38.88H248s8.38.67 8.38-9.26V0" fill="none" stroke="#faa623" stroke-width="3" stroke-dasharray="45.11545646500117,2.046980783348511" stroke-dashoffset="45.115456" stroke-miterlimit="10"/><path d="M244.63 44.41h3.58s14.29.72 14.29-16V5.11" fill="none" stroke="#faa623" stroke-width="3" stroke-dasharray="48.9126527587118,2.219267366547723" stroke-dashoffset="48.912653" stroke-miterlimit="10"/><path d="M280.76 31.76c-.619 0-1.227-.163-1.763-.473-.536-.31-.98-.756-1.289-1.293-.308-.536-.47-1.145-.468-1.764V5.11H264v26.2c0 3.926 1.561 7.696 4.338 10.472 2.776 2.777 6.546 4.338 10.472 4.338h6.65V31.76z" fill="#faa624"/><path d="M288.66 33.28h1.11s4.45.61 4.45-4.35V5.11" fill="none" stroke="#faa623" stroke-width="3" stroke-dasharray="30.104842732303563,2.006989515486904" stroke-dashoffset="30.104843" stroke-miterlimit="10"/><path d="M288.66 38.88H292s8.38.67 8.38-9.26V0" fill="none" stroke="#faa623" stroke-width="3" stroke-dasharray="44.21478492032782,2.9476523280218547" stroke-dashoffset="44.214785" stroke-miterlimit="10"/><path d="M288.63 44.41h3.58s14.29.72 14.29-16V5.11" fill="none" stroke="#faa623" stroke-width="3" stroke-dasharray="47.93617511743081,3.1957450078287204" stroke-dashoffset="47.936175" stroke-miterlimit="10"/><path d="M324.76 31.76c-.619 0-1.227-.163-1.763-.473-.536-.31-.98-.756-1.289-1.293-.308-.536-.47-1.145-.468-1.764V5.11H308v26.2c0 3.926 1.561 7.696 4.338 10.472 2.776 2.777 6.546 4.338 10.472 4.338h6.65V31.76z" fill="#faa624"/><path d="M332.66 33.28h1.11s4.45.61 4.45-4.35V5.11" fill="none" stroke="#faa623" stroke-width="3" stroke-dasharray="29.380096518377737,2.73173572941273" stroke-dashoffset="29.380097" stroke-miterlimit="10"/><path d="M332.66 38.88H336s8.38.67 8.38-9.26V0" fill="none" stroke="#faa623" stroke-width="3" stroke-dasharray="43.1503549129866,4.012082335363079" stroke-dashoffset="43.150355" stroke-miterlimit="10"/><path d="M332.63 44.41h3.58s14.29.72 14.29-16V5.11" fill="none" stroke="#faa623" stroke-width="3" stroke-dasharray="46.78215608682599,4.349764038433535" stroke-dashoffset="46.782156" stroke-miterlimit="10"/><path d="M368.76 31.76c-.619 0-1.227-.163-1.763-.473-.536-.31-.98-.756-1.289-1.293-.308-.536-.47-1.145-.468-1.764V5.11H352v26.2c0 3.926 1.561 7.696 4.338 10.472 2.776 2.777 6.546 4.338 10.472 4.338h6.65V31.76z" fill="#faa624"/><path d="M376.66 33.28h1.11s4.45.61 4.45-4.35V5.11" fill="none" stroke="#faa623" stroke-width="3" stroke-dasharray="28.54385088692486,3.5679813608656055" stroke-dashoffset="28.543851" stroke-miterlimit="10"/><path d="M376.66 38.88H380s8.38.67 8.38-9.26V0" fill="none" stroke="#faa623" stroke-width="3" stroke-dasharray="41.92216644297749,5.240270805372183" stroke-dashoffset="41.922166" stroke-miterlimit="10"/><path d="M376.63 44.41h3.58s14.29.72 14.29-16V5.11" fill="none" stroke="#faa623" stroke-width="3" stroke-dasharray="45.45059566689736,5.681324458362166" stroke-dashoffset="45.450596" stroke-miterlimit="10"/><path d="M412.76 31.76c-.619 0-1.227-.163-1.763-.473-.536-.31-.98-.756-1.289-1.293-.308-.536-.47-1.145-.468-1.764V5.11H396v26.2c0 3.926 1.561 7.696 4.338 10.472 2.776 2.777 6.546 4.338 10.472 4.338h6.65V31.76z" fill="#faa624"/><path d="M420.66 33.28h1.11s4.45.61 4.45-4.35V5.11" fill="none" stroke="#faa623" stroke-width="3" stroke-dasharray="27.596105837944933,4.515726409845534" stroke-dashoffset="27.596106" stroke-miterlimit="10"/><path d="M420.66 38.88H424s8.38.67 8.38-9.26V0" fill="none" stroke="#faa623" stroke-width="3" stroke-dasharray="40.530219510300505,6.632217738049173" stroke-dashoffset="40.53022" stroke-miterlimit="10"/><path d="M420.63 44.41h3.58s14.29.72 14.29-16V5.11" fill="none" stroke="#faa623" stroke-width="3" stroke-dasharray="43.94149385764491,7.190426267614621" stroke-dashoffset="43.941494" stroke-miterlimit="10"/><path d="M456.76 31.76c-.619 0-1.227-.163-1.763-.473-.536-.31-.98-.756-1.289-1.293-.308-.536-.47-1.145-.468-1.764V5.11H440v26.2c0 3.926 1.561 7.696 4.338 10.472 2.776 2.777 6.546 4.338 10.472 4.338h6.65V31.76z" fill="#faa624"/><path d="M464.66 33.28h1.11s4.45.61 4.45-4.35V5.11" fill="none" stroke="#faa623" stroke-width="3" stroke-dasharray="26.536861371437954,5.574970876352514" stroke-dashoffset="26.536861" stroke-miterlimit="10"/><path d="M464.66 38.88H468s8.38.67 8.38-9.26V0" fill="none" stroke="#faa623" stroke-width="3" stroke-dasharray="38.97451411495563,8.187923133394044" stroke-dashoffset="38.974514" stroke-miterlimit="10"/><path d="M464.63 44.41h3.58s14.29.72 14.29-16V5.11" fill="none" stroke="#faa623" stroke-width="3" stroke-dasharray="42.25485065906864,8.877069466190893" stroke-dashoffset="42.254851" stroke-miterlimit="10"/><path d="M500.76 31.76c-.619 0-1.227-.163-1.763-.473-.536-.31-.98-.756-1.289-1.293-.308-.536-.47-1.145-.468-1.764V5.11H484v26.2c0 3.926 1.561 7.696 4.338 10.472 2.776 2.777 6.546 4.338 10.472 4.338h6.65V31.76z" fill="#faa624"/><path d="M508.66 33.28h1.11s4.45.61 4.45-4.35V5.11" fill="none" stroke="#faa623" stroke-width="3" stroke-dasharray="25.36611748740393,6.745714760386538" stroke-dashoffset="25.366117" stroke-miterlimit="10"/><path d="M508.66 38.88H512s8.38.67 8.38-9.26V0" fill="none" stroke="#faa623" stroke-width="3" stroke-dasharray="37.25505025694289,9.907386991406788" stroke-dashoffset="37.25505" stroke-miterlimit="10"/><path d="M508.63 44.41h3.58s14.29.72 14.29-16V5.11" fill="none" stroke="#faa623" stroke-width="3" stroke-dasharray="40.39066607116855,10.741254054090975" stroke-dashoffset="40.390666" stroke-miterlimit="10"/><path d="M544.76 31.76c-.619 0-1.227-.163-1.763-.473-.536-.31-.98-.756-1.289-1.293-.308-.536-.47-1.145-.468-1.764V5.11H528v26.2c0 3.926 1.561 7.696 4.338 10.472 2.776 2.777 6.546 4.338 10.472 4.338h6.65V31.76z" fill="#faa624"/><path d="M552.66 33.28h1.11s4.45.61 4.45-4.35V5.11" fill="none" stroke="#faa623" stroke-width="3" stroke-dasharray="24.083874185842852,8.027958061947617" stroke-dashoffset="24.083874" stroke-miterlimit="10"/><path d="M552.66 38.88H556s8.38.67 8.38-9.26V0" fill="none" stroke="#faa623" stroke-width="3" stroke-dasharray="35.37182793626226,11.790609312087419" stroke-dashoffset="35.371828" stroke-miterlimit="10"/><path d="M552.63 44.41h3.58s14.29.72 14.29-16V5.11" fill="none" stroke="#faa623" stroke-width="3" stroke-dasharray="38.34894009394465,12.782980031314882" stroke-dashoffset="38.34894" stroke-miterlimit="10"/><g><path d="M588.76 31.76c-.619 0-1.227-.163-1.763-.473-.536-.31-.98-.756-1.289-1.293-.308-.536-.47-1.145-.468-1.764V5.11H572v26.2c0 3.926 1.561 7.696 4.338 10.472 2.776 2.777 6.546 4.338 10.472 4.338h6.65V31.76z" fill="#faa624"/><path d="M596.66 33.28h1.11s4.45.61 4.45-4.35V5.11" fill="none" stroke="#faa623" stroke-width="3" stroke-dasharray="22.690131466754725,9.421700781035742" stroke-dashoffset="22.690131" stroke-miterlimit="10"/><path d="M596.66 38.88H600s8.38.67 8.38-9.26V0" fill="none" stroke="#faa623" stroke-width="3" stroke-dasharray="33.324847152913755,13.837590095435925" stroke-dashoffset="33.324847" stroke-miterlimit="10"/><path d="M596.63 44.41h3.58s14.29.72 14.29-16V5.11" fill="none" stroke="#faa623" stroke-width="3" stroke-dasharray="36.12967272739693,15.002247397862599" stroke-dashoffset="36.129673" stroke-miterlimit="10"/></g><g><path d="M632.76 31.76c-.619 0-1.227-.163-1.763-.473-.536-.31-.98-.756-1.289-1.293-.308-.536-.47-1.145-.468-1.764V5.11H616v26.2c0 3.926 1.561 7.696 4.338 10.472 2.776 2.777 6.546 4.338 10.472 4.338h6.65V31.76z" fill="#faa624"/><path d="M640.66 33.28h1.11s4.45.61 4.45-4.35V5.11" fill="none" stroke="#faa623" stroke-width="3" stroke-dasharray="21.18488933013954,10.926942917650926" stroke-dashoffset="21.184889" stroke-miterlimit="10"/><path d="M640.66 38.88H644s8.38.67 8.38-9.26V0" fill="none" stroke="#faa623" stroke-width="3" stroke-dasharray="31.11410790689735,16.048329341452327" stroke-dashoffset="31.114108" stroke-miterlimit="10"/><path d="M640.63 44.41h3.58s14.29.72 14.29-16V5.11" fill="none" stroke="#faa623" stroke-width="3" stroke-dasharray="33.732863971525376,17.39905615373415" stroke-dashoffset="33.732864" stroke-miterlimit="10"/></g><g><path d="M676.76 31.76c-.619 0-1.227-.163-1.763-.473-.536-.31-.98-.756-1.289-1.293-.308-.536-.47-1.145-.468-1.764V5.11H660v26.2c0 3.926 1.561 7.696 4.338 10.472 2.776 2.777 6.546 4.338 10.472 4.338h6.65V31.76z" fill="#faa624"/><path d="M684.66 33.28h1.11s4.45.61 4.45-4.35V5.11" fill="none" stroke="#faa623" stroke-width="3" stroke-dasharray="19.568147775997314,12.543684471793151" stroke-dashoffset="19.568148" stroke-miterlimit="10"/><path d="M684.66 38.88H688s8.38.67 8.38-9.26V0" fill="none" stroke="#faa623" stroke-width="3" stroke-dasharray="28.739610198213082,18.422827050136593" stroke-dashoffset="28.73961" stroke-miterlimit="10"/><path d="M684.63 44.41h3.58s14.29.72 14.29-16V5.11" fill="none" stroke="#faa623" stroke-width="3" stroke-dasharray="31.158513826330022,19.973406298929504" stroke-dashoffset="31.158514" stroke-miterlimit="10"/></g><g><path d="M720.76 31.76c-.619 0-1.227-.163-1.763-.473-.536-.31-.98-.756-1.289-1.293-.308-.536-.47-1.145-.468-1.764V5.11H704v26.2c0 3.926 1.561 7.696 4.338 10.472 2.776 2.777 6.546 4.338 10.472 4.338h6.65V31.76z" fill="#faa624"/><path d="M728.66 33.28h1.11s4.45.61 4.45-4.35V5.11" fill="none" stroke="#faa623" stroke-width="3" stroke-dasharray="17.839906804328045,14.271925443462422" stroke-dashoffset="17.839907" stroke-miterlimit="10"/><path d="M728.66 38.88H732s8.38.67 8.38-9.26V0" fill="none" stroke="#faa623" stroke-width="3" stroke-dasharray="26.201354026860944,20.96108322148873" stroke-dashoffset="26.201354" stroke-miterlimit="10"/><path d="M728.63 44.41h3.58s14.29.72 14.29-16V5.11" fill="none" stroke="#faa623" stroke-width="3" stroke-dasharray="28.406622291810862,22.725297833448664" stroke-dashoffset="28.406622" stroke-miterlimit="10"/></g><g><path d="M764.76 31.76c-.619 0-1.227-.163-1.763-.473-.536-.31-.98-.756-1.289-1.293-.308-.536-.47-1.145-.468-1.764V5.11H748v26.2c0 3.926 1.561 7.696 4.338 10.472 2.776 2.777 6.546 4.338 10.472 4.338h6.65V31.76z" fill="#faa624"/><path d="M772.66 33.28h1.11s4.45.61 4.45-4.35V5.11" fill="none" stroke="#faa623" stroke-width="3" stroke-dasharray="16.0001664151317,16.111665832658765" stroke-dashoffset="16.000166" stroke-miterlimit="10"/><path d="M772.66 38.88H776s8.38.67 8.38-9.26V0" fill="none" stroke="#faa623" stroke-width="3" stroke-dasharray="23.49933939284089,23.663097855508784" stroke-dashoffset="23.499339" stroke-miterlimit="10"/><path d="M772.63 44.41h3.58s14.29.72 14.29-16V5.11" fill="none" stroke="#faa623" stroke-width="3" stroke-dasharray="25.477189367967846,25.65473075729168" stroke-dashoffset="25.477189" stroke-miterlimit="10"/></g><g><path d="M808.76 31.76c-.619 0-1.227-.163-1.763-.473-.536-.31-.98-.756-1.289-1.293-.308-.536-.47-1.145-.468-1.764V5.11H792v26.2c0 3.926 1.561 7.696 4.338 10.472 2.776 2.777 6.546 4.338 10.472 4.338h6.65V31.76z" fill="#faa624"/><path d="M816.66 33.28h1.11s4.45.61 4.45-4.35V5.11" fill="none" stroke="#faa623" stroke-width="3" stroke-dasharray="14.04892660840833,18.062905639382137" stroke-dashoffset="14.048927" stroke-miterlimit="10"/><path d="M816.66 38.88H820s8.38.67 8.38-9.26V0" fill="none" stroke="#faa623" stroke-width="3" stroke-dasharray="20.633566296152985,26.52887095219669" stroke-dashoffset="20.633566" stroke-miterlimit="10"/><path d="M816.63 44.41h3.58s14.29.72 14.29-16V5.11" fill="none" stroke="#faa623" stroke-width="3" stroke-dasharray="22.370215054801044,28.761705070458483" stroke-dashoffset="22.370215" stroke-miterlimit="10"/></g><g><path d="M852.76 31.76c-.619 0-1.227-.163-1.763-.473-.536-.31-.98-.756-1.289-1.293-.308-.536-.47-1.145-.468-1.764V5.11H836v26.2c0 3.926 1.561 7.696 4.338 10.472 2.776 2.777 6.546 4.338 10.472 4.338h6.65V31.76z" fill="#faa624"/><path d="M860.66 33.28h1.11s4.45.61 4.45-4.35V5.11" fill="none" stroke="#faa623" stroke-width="3" stroke-dasharray="11.986187384157908,20.12564486363256" stroke-dashoffset="11.986187" stroke-miterlimit="10"/><path d="M860.66 38.88H864s8.38.67 8.38-9.26V0" fill="none" stroke="#faa623" stroke-width="3" stroke-dasharray="17.6040347367972,29.558402511552476" stroke-dashoffset="17.604035" stroke-miterlimit="10"/><path d="M860.63 44.41h3.58s14.29.72 14.29-16V5.11" fill="none" stroke="#faa623" stroke-width="3" stroke-dasharray="19.085699352310428,32.0462207729491" stroke-dashoffset="19.085699" stroke-miterlimit="10"/></g><g><path d="M896.76 31.76c-.619 0-1.227-.163-1.763-.473-.536-.31-.98-.756-1.289-1.293-.308-.536-.47-1.145-.468-1.764V5.11H880v26.2c0 3.926 1.561 7.696 4.338 10.472 2.776 2.777 6.546 4.338 10.472 4.338h6.65V31.76z" fill="#faa624"/><path d="M904.66 33.28h1.11s4.45.61 4.45-4.35V5.11" fill="none" stroke="#faa623" stroke-width="3" stroke-dasharray="9.811948742380414,22.299883505410055" stroke-dashoffset="9.811949" stroke-miterlimit="10"/><path d="M904.66 38.88H908s8.38.67 8.38-9.26V0" fill="none" stroke="#faa623" stroke-width="3" stroke-dasharray="14.410744714773502,32.751692533576175" stroke-dashoffset="14.410745" stroke-miterlimit="10"/><path d="M904.63 44.41h3.58s14.29.72 14.29-16V5.11" fill="none" stroke="#faa623" stroke-width="3" stroke-dasharray="15.623642260495956,35.50827786476357" stroke-dashoffset="15.623642" stroke-miterlimit="10"/></g><g><path d="M940.76 31.76c-.619 0-1.227-.163-1.763-.473-.536-.31-.98-.756-1.289-1.293-.308-.536-.47-1.145-.468-1.764V5.11H924v26.2c0 3.926 1.561 7.696 4.338 10.472 2.776 2.777 6.546 4.338 10.472 4.338h6.65V31.76z" fill="#faa624"/><path d="M948.66 33.28h1.11s4.45.61 4.45-4.35V5.11" fill="none" stroke="#faa623" stroke-width="3" stroke-dasharray="7.526210683075891,24.585621564714575" stroke-dashoffset="7.526211" stroke-miterlimit="10"/><path d="M948.66 38.88H952s8.38.67 8.38-9.26V0" fill="none" stroke="#faa623" stroke-width="3" stroke-dasharray="11.053696230081956,36.10874101826772" stroke-dashoffset="11.053696" stroke-miterlimit="10"/><path d="M948.63 44.41h3.58s14.29.72 14.29-16V5.11" fill="none" stroke="#faa623" stroke-width="3" stroke-dasharray="11.984043779357702,39.14787634590183" stroke-dashoffset="11.984044" stroke-miterlimit="10"/></g><g><path d="M984.76 31.76c-.619 0-1.227-.163-1.763-.473-.536-.31-.98-.756-1.289-1.293-.308-.536-.47-1.145-.468-1.764V5.11H968v26.2c0 3.926 1.561 7.696 4.338 10.472 2.776 2.777 6.546 4.338 10.472 4.338h6.65V31.76z" fill="#faa624"/><path d="M992.66 33.28h1.11s4.45.61 4.45-4.35V5.11" fill="none" stroke="#faa623" stroke-width="3" stroke-dasharray="5.128973206244321,26.982859041546146" stroke-dashoffset="5.128973" stroke-miterlimit="10"/><path d="M992.66 38.88H996s8.38.67 8.38-9.26V0" fill="none" stroke="#faa623" stroke-width="3" stroke-dasharray="7.532889282722532,39.62954796562714" stroke-dashoffset="7.532889" stroke-miterlimit="10"/><path d="M992.63 44.41h3.58s14.29.72 14.29-16V5.11" fill="none" stroke="#faa623" stroke-width="3" stroke-dasharray="8.166903908895636,42.96501621636389" stroke-dashoffset="8.166904" stroke-miterlimit="10"/></g><g><path d="M1028.76 31.76c-.619 0-1.227-.163-1.763-.473-.536-.31-.98-.756-1.289-1.293-.308-.536-.47-1.145-.468-1.764V5.11H1012v26.2c0 3.926 1.561 7.696 4.338 10.472 2.776 2.777 6.546 4.338 10.472 4.338h6.65V31.76z" fill="#faa624"/><path d="M1036.66 33.28h1.11s4.45.61 4.45-4.35V5.11" fill="none" stroke="#faa623" stroke-width="3" stroke-dasharray="2.620236311885673,29.491595935904794" stroke-dashoffset="2.620236" stroke-miterlimit="10"/><path d="M1036.66 38.88h3.34s8.38.67 8.38-9.26V0" fill="none" stroke="#faa623" stroke-width="3" stroke-dasharray="3.8483238726951883,43.314113375654486" stroke-dashoffset="3.848324" stroke-miterlimit="10"/><path d="M1036.63 44.41h3.58s14.29.72 14.29-16V5.11" fill="none" stroke="#faa623" stroke-width="3" stroke-dasharray="4.172222649109706,46.95969747614982" stroke-dashoffset="4.172223" stroke-miterlimit="10"/></g><g><path d="M1072.76 31.76c-.619 0-1.227-.163-1.763-.473-.536-.31-.98-.756-1.289-1.293-.308-.536-.47-1.145-.468-1.764V5.11H1056v26.2c0 3.926 1.561 7.696 4.338 10.472 2.776 2.777 6.546 4.338 10.472 4.338h6.65V31.76z" fill="#faa624"/><path d="M1080.66 33.28h1.11s4.45.61 4.45-4.35V5.11" fill="none" stroke="#faa623" stroke-width="3" stroke-dasharray="0,32.11183224779047" stroke-dashoffset="32.111832" stroke-miterlimit="10"/><path d="M1080.66 38.88h3.34s8.38.67 8.38-9.26V0" fill="none" stroke="#faa623" stroke-width="3" stroke-dasharray="0,47.162437248349676" stroke-dashoffset="47.162437" stroke-miterlimit="10"/><path d="M1080.63 44.41h3.58s14.29.72 14.29-16V5.11" fill="none" stroke="#faa623" stroke-width="3" stroke-dasharray="0,51.131920125259526" stroke-dashoffset="51.13192" stroke-miterlimit="10"/></g><g><path d="M1116.76 31.76c-.619 0-1.227-.163-1.763-.473-.536-.31-.98-.756-1.289-1.293-.308-.536-.47-1.145-.468-1.764V5.11H1100v26.2c0 3.926 1.561 7.696 4.338 10.472 2.776 2.777 6.546 4.338 10.472 4.338h6.65V31.76z" fill="#faa624"/><path d="M1124.66 33.28h1.11s4.45.61 4.45-4.35V5.11" fill="none" stroke="#faa623" stroke-width="3" stroke-dasharray="2.6202363118856837,29.491595935904783" stroke-dashoffset="32.111832" stroke-miterlimit="10"/><path d="M1124.66 38.88h3.34s8.38.67 8.38-9.26V0" fill="none" stroke="#faa623" stroke-width="3" stroke-dasharray="3.848323872695204,43.31411337565447" stroke-dashoffset="47.162437" stroke-miterlimit="10"/><path d="M1124.63 44.41h3.58s14.29.72 14.29-16V5.11" fill="none" stroke="#faa623" stroke-width="3" stroke-dasharray="0.20126945095487056,50.93065067430466" stroke-dashoffset="51.13192" stroke-miterlimit="10"/></g><g><path d="M1160.76 31.76c-.619 0-1.227-.163-1.763-.473-.536-.31-.98-.756-1.289-1.293-.308-.536-.47-1.145-.468-1.764V5.11H1144v26.2c0 3.926 1.561 7.696 4.338 10.472 2.776 2.777 6.546 4.338 10.472 4.338h6.65V31.76z" fill="#faa624"/><path d="M1168.66 33.28h1.11s4.45.61 4.45-4.35V5.11" fill="none" stroke="#faa623" stroke-width="3" stroke-dasharray="5.128973206244306,26.98285904154616" stroke-dashoffset="32.111832" stroke-miterlimit="10"/><path d="M1168.66 38.88h3.34s8.38.67 8.38-9.26V0" fill="none" stroke="#faa623" stroke-width="3" stroke-dasharray="7.532889282722512,39.62954796562716" stroke-dashoffset="47.162437" stroke-miterlimit="10"/><path d="M1168.63 44.41h3.58s14.29.72 14.29-16V5.11" fill="none" stroke="#faa623" stroke-width="3" stroke-dasharray="0.8829923595377699,50.24892776572176" stroke-dashoffset="51.13192" stroke-miterlimit="10"/></g><g><path d="M1204.76 31.76c-.619 0-1.227-.163-1.763-.473-.536-.31-.98-.756-1.289-1.293-.308-.536-.47-1.145-.468-1.764V5.11H1188v26.2c0 3.926 1.561 7.696 4.338 10.472 2.776 2.777 6.546 4.338 10.472 4.338h6.65V31.76z" fill="#faa624"/><path d="M1212.66 33.28h1.11s4.45.61 4.45-4.35V5.11" fill="none" stroke="#faa623" stroke-width="3" stroke-dasharray="7.526210683075891,24.585621564714575" stroke-dashoffset="32.111832" stroke-miterlimit="10"/><path d="M1212.66 38.88h3.34s8.38.67 8.38-9.26V0" fill="none" stroke="#faa623" stroke-width="3" stroke-dasharray="11.053696230081956,36.10874101826772" stroke-dashoffset="47.162437" stroke-miterlimit="10"/><path d="M1212.63 44.41h3.58s14.29.72 14.29-16V5.11" fill="none" stroke="#faa623" stroke-width="3" stroke-dasharray="2.197074692882245,48.93484543237728" stroke-dashoffset="51.13192" stroke-miterlimit="10"/></g><g><path d="M1248.76 31.76c-.619 0-1.227-.163-1.763-.473-.536-.31-.98-.756-1.289-1.293-.308-.536-.47-1.145-.468-1.764V5.11H1232v26.2c0 3.926 1.561 7.696 4.338 10.472 2.776 2.777 6.546 4.338 10.472 4.338h6.65V31.76z" fill="#faa624"/><path d="M1256.66 33.28h1.11s4.45.61 4.45-4.35V5.11" fill="none" stroke="#faa623" stroke-width="3" stroke-dasharray="9.811948742380425,22.29988350541004" stroke-dashoffset="32.111832" stroke-miterlimit="10"/><path d="M1256.66 38.88h3.34s8.38.67 8.38-9.26V0" fill="none" stroke="#faa623" stroke-width="3" stroke-dasharray="14.410744714773518,32.751692533576154" stroke-dashoffset="47.162437" stroke-miterlimit="10"/><path d="M1256.63 44.41h3.58s14.29.72 14.29-16V5.11" fill="none" stroke="#faa623" stroke-width="3" stroke-dasharray="4.351606687676805,46.78031343758272" stroke-dashoffset="51.13192" stroke-miterlimit="10"/></g><g><path d="M1292.76 31.76c-.619 0-1.227-.163-1.763-.473-.536-.31-.98-.756-1.289-1.293-.308-.536-.47-1.145-.468-1.764V5.11H1276v26.2c0 3.926 1.561 7.696 4.338 10.472 2.776 2.777 6.546 4.338 10.472 4.338h6.65V31.76z" fill="#faa624"/><path d="M1300.66 33.28h1.11s4.45.61 4.45-4.35V5.11" fill="none" stroke="#faa623" stroke-width="3" stroke-dasharray="11.986187384157894,20.125644863632573" stroke-dashoffset="32.111832" stroke-miterlimit="10"/><path d="M1300.66 38.88h3.34s8.38.67 8.38-9.26V0" fill="none" stroke="#faa623" stroke-width="3" stroke-dasharray="17.604034736797182,29.558402511552494" stroke-dashoffset="47.162437" stroke-miterlimit="10"/><path d="M1300.63 44.41h3.58s14.29.72 14.29-16V5.11" fill="none" stroke="#faa623" stroke-width="3" stroke-dasharray="7.596361131014713,43.535558994244816" stroke-dashoffset="51.13192" stroke-miterlimit="10"/></g><g><path d="M1336.76 31.76c-.619 0-1.227-.163-1.763-.473-.536-.31-.98-.756-1.289-1.293-.308-.536-.47-1.145-.468-1.764V5.11H1320v26.2c0 3.926 1.561 7.696 4.338 10.472 2.776 2.777 6.546 4.338 10.472 4.338h6.65V31.76z" fill="#faa624"/><path d="M1344.66 33.28h1.11s4.45.61 4.45-4.35V5.11" fill="none" stroke="#faa623" stroke-width="3" stroke-dasharray="14.04892660840833,18.062905639382137" stroke-dashoffset="32.111832" stroke-miterlimit="10"/><path d="M1344.66 38.88h3.34s8.38.67 8.38-9.26V0" fill="none" stroke="#faa623" stroke-width="3" stroke-dasharray="20.633566296152985,26.52887095219669" stroke-dashoffset="47.162437" stroke-miterlimit="10"/><path d="M1344.63 44.41h3.58s14.29.72 14.29-16V5.11" fill="none" stroke="#faa623" stroke-width="3" stroke-dasharray="12.097166018084582,39.03475410717495" stroke-dashoffset="51.13192" stroke-miterlimit="10"/></g><g><path d="M1380.76 31.76c-.619 0-1.227-.163-1.763-.473-.536-.31-.98-.756-1.289-1.293-.308-.536-.47-1.145-.468-1.764V5.11H1364v26.2c0 3.926 1.561 7.696 4.338 10.472 2.776 2.777 6.546 4.338 10.472 4.338h6.65V31.76z" fill="#faa624"/><path d="M1388.66 33.28h1.11s4.45.61 4.45-4.35V5.11" fill="none" stroke="#faa623" stroke-width="3" stroke-dasharray="16.000166415131716,16.11166583265875" stroke-dashoffset="32.111832" stroke-miterlimit="10"/><path d="M1388.66 38.88h3.34s8.38.67 8.38-9.26V0" fill="none" stroke="#faa623" stroke-width="3" stroke-dasharray="23.49933939284091,23.663097855508767" stroke-dashoffset="47.162437" stroke-miterlimit="10"/><path d="M1388.63 44.41h3.58s14.29.72 14.29-16V5.11" fill="none" stroke="#faa623" stroke-width="3" stroke-dasharray="17.61769048509038,33.51422964016915" stroke-dashoffset="51.13192" stroke-miterlimit="10"/></g><g><path d="M1424.76 31.76c-.619 0-1.227-.163-1.763-.473-.536-.31-.98-.756-1.289-1.293-.308-.536-.47-1.145-.468-1.764V5.11H1408v26.2c0 3.926 1.561 7.696 4.338 10.472 2.776 2.777 6.546 4.338 10.472 4.338h6.65V31.76z" fill="#faa624"/><path d="M1432.66 33.28h1.11s4.45.61 4.45-4.35V5.11" fill="none" stroke="#faa623" stroke-width="3" stroke-dasharray="17.83990680432803,14.271925443462436" stroke-dashoffset="32.111832" stroke-miterlimit="10"/><path d="M1432.66 38.88h3.34s8.38.67 8.38-9.26V0" fill="none" stroke="#faa623" stroke-width="3" stroke-dasharray="26.201354026860923,20.961083221488753" stroke-dashoffset="47.162437" stroke-miterlimit="10"/><path d="M1432.63 44.41h3.58s14.29.72 14.29-16V5.11" fill="none" stroke="#faa623" stroke-width="3" stroke-dasharray="23.380159437452196,27.75176068780733" stroke-dashoffset="51.13192" stroke-miterlimit="10"/></g><g><path d="M1468.76 31.76c-.619 0-1.227-.163-1.763-.473-.536-.31-.98-.756-1.289-1.293-.308-.536-.47-1.145-.468-1.764V5.11H1452v26.2c0 3.926 1.561 7.696 4.338 10.472 2.776 2.777 6.546 4.338 10.472 4.338h6.65V31.76z" fill="#faa624"/><path d="M1476.66 33.28h1.11s4.45.61 4.45-4.35V5.11" fill="none" stroke="#faa623" stroke-width="3" stroke-dasharray="19.568147775997314,12.543684471793151" stroke-dashoffset="32.111832" stroke-miterlimit="10"/><path d="M1476.66 38.88h3.34s8.38.67 8.38-9.26V0" fill="none" stroke="#faa623" stroke-width="3" stroke-dasharray="28.739610198213082,18.422827050136593" stroke-dashoffset="47.162437" stroke-miterlimit="10"/><path d="M1476.63 44.41h3.58s14.29.72 14.29-16V5.11" fill="none" stroke="#faa623" stroke-width="3" stroke-dasharray="28.62007694190012,22.511843183359407" stroke-dashoffset="51.13192" stroke-miterlimit="10"/></g><g><path d="M1512.76 31.76c-.619 0-1.227-.163-1.763-.473-.536-.31-.98-.756-1.289-1.293-.308-.536-.47-1.145-.468-1.764V5.11H1496v26.2c0 3.926 1.561 7.696 4.338 10.472 2.776 2.777 6.546 4.338 10.472 4.338h6.65V31.76z" fill="#faa624"/><path d="M1520.66 33.28h1.11s4.45.61 4.45-4.35V5.11" fill="none" stroke="#faa623" stroke-width="3" stroke-dasharray="21.18488933013955,10.926942917650916" stroke-dashoffset="32.111832" stroke-miterlimit="10"/><path d="M1520.66 38.88h3.34s8.38.67 8.38-9.26V0" fill="none" stroke="#faa623" stroke-width="3" stroke-dasharray="31.114107906897367,16.04832934145231" stroke-dashoffset="47.162437" stroke-miterlimit="10"/><path d="M1520.63 44.41h3.58s14.29.72 14.29-16V5.11" fill="none" stroke="#faa623" stroke-width="3" stroke-dasharray="33.04380493151933,18.088115193740194" stroke-dashoffset="51.13192" stroke-miterlimit="10"/></g><g><path d="M1556.76 31.76c-.619 0-1.227-.163-1.763-.473-.536-.31-.98-.756-1.289-1.293-.308-.536-.47-1.145-.468-1.764V5.11H1540v26.2c0 3.926 1.561 7.696 4.338 10.472 2.776 2.777 6.546 4.338 10.472 4.338h6.65V31.76z" fill="#faa624"/><path d="M1564.66 33.28h1.11s4.45.61 4.45-4.35V5.11" fill="none" stroke="#faa623" stroke-width="3" stroke-dasharray="22.690131466754718,9.42170078103575" stroke-dashoffset="32.111832" stroke-miterlimit="10"/><path d="M1564.66 38.88h3.34s8.38.67 8.38-9.26V0" fill="none" stroke="#faa623" stroke-width="3" stroke-dasharray="33.32484715291374,13.837590095435935" stroke-dashoffset="47.162437" stroke-miterlimit="10"/><path d="M1564.63 44.41h3.58s14.29.72 14.29-16V5.11" fill="none" stroke="#faa623" stroke-width="3" stroke-dasharray="36.68090168822761,14.45101843703192" stroke-dashoffset="51.13192" stroke-miterlimit="10"/></g><g><path d="M1600.76 31.76c-.619 0-1.227-.163-1.763-.473-.536-.31-.98-.756-1.289-1.293-.308-.536-.47-1.145-.468-1.764V5.11H1584v26.2c0 3.926 1.561 7.696 4.338 10.472 2.776 2.777 6.546 4.338 10.472 4.338h6.65V31.76z" fill="#faa624"/><path d="M1608.66 33.28h1.11s4.45.61 4.45-4.35V5.11" fill="none" stroke="#faa623" stroke-width="3" stroke-dasharray="24.083874185842852,8.027958061947617" stroke-dashoffset="32.111832" stroke-miterlimit="10"/><path d="M1608.66 38.88h3.34s8.38.67 8.38-9.26V0" fill="none" stroke="#faa623" stroke-width="3" stroke-dasharray="35.37182793626226,11.790609312087419" stroke-dashoffset="47.162437" stroke-miterlimit="10"/><path d="M1608.63 44.41h3.58s14.29.72 14.29-16V5.11" fill="none" stroke="#faa623" stroke-width="3" stroke-dasharray="39.655939012234974,11.47598111302455" stroke-dashoffset="51.13192" stroke-miterlimit="10"/></g><g><path d="M1644.76 31.76c-.619 0-1.227-.163-1.763-.473-.536-.31-.98-.756-1.289-1.293-.308-.536-.47-1.145-.468-1.764V5.11H1628v26.2c0 3.926 1.561 7.696 4.338 10.472 2.776 2.777 6.546 4.338 10.472 4.338h6.65V31.76z" fill="#faa624"/><path d="M1652.66 33.28h1.11s4.45.61 4.45-4.35V5.11" fill="none" stroke="#faa623" stroke-width="3" stroke-dasharray="25.366117487403933,6.745714760386535" stroke-dashoffset="32.111832" stroke-miterlimit="10"/><path d="M1652.66 38.88h3.34s8.38.67 8.38-9.26V0" fill="none" stroke="#faa623" stroke-width="3" stroke-dasharray="37.255050256942894,9.907386991406783" stroke-dashoffset="47.162437" stroke-miterlimit="10"/><path d="M1652.63 44.41h3.58s14.29.72 14.29-16V5.11" fill="none" stroke="#faa623" stroke-width="3" stroke-dasharray="42.093085477169424,9.0388346480901" stroke-dashoffset="51.13192" stroke-miterlimit="10"/></g><g><path d="M1688.76 31.76c-.619 0-1.227-.163-1.763-.473-.536-.31-.98-.756-1.289-1.293-.308-.536-.47-1.145-.468-1.764V5.11H1672v26.2c0 3.926 1.561 7.696 4.338 10.472 2.776 2.777 6.546 4.338 10.472 4.338h6.65V31.76z" fill="#faa624"/><path d="M1696.66 33.28h1.11s4.45.61 4.45-4.35V5.11" fill="none" stroke="#faa623" stroke-width="3" stroke-dasharray="26.53686137143795,5.574970876352517" stroke-dashoffset="32.111832" stroke-miterlimit="10"/><path d="M1696.66 38.88h3.34s8.38.67 8.38-9.26V0" fill="none" stroke="#faa623" stroke-width="3" stroke-dasharray="38.974514114955625,8.18792313339405" stroke-dashoffset="47.162437" stroke-miterlimit="10"/><path d="M1696.63 44.41h3.58s14.29.72 14.29-16V5.11" fill="none" stroke="#faa623" stroke-width="3" stroke-dasharray="44.093673069321845,7.038247055937678" stroke-dashoffset="51.13192" stroke-miterlimit="10"/></g><g><path d="M1732.76 31.76c-.619 0-1.227-.163-1.763-.473-.536-.31-.98-.756-1.289-1.293-.308-.536-.47-1.145-.468-1.764V5.11H1716v26.2c0 3.926 1.561 7.696 4.338 10.472 2.776 2.777 6.546 4.338 10.472 4.338h6.65V31.76z" fill="#faa624"/><path d="M1740.66 33.28h1.11s4.45.61 4.45-4.35V5.11" fill="none" stroke="#faa623" stroke-width="3" stroke-dasharray="27.596105837944933,4.515726409845534" stroke-dashoffset="32.111832" stroke-miterlimit="10"/><path d="M1740.66 38.88h3.34s8.38.67 8.38-9.26V0" fill="none" stroke="#faa623" stroke-width="3" stroke-dasharray="40.530219510300505,6.632217738049173" stroke-dashoffset="47.162437" stroke-miterlimit="10"/><path d="M1740.63 44.41h3.58s14.29.72 14.29-16V5.11" fill="none" stroke="#faa623" stroke-width="3" stroke-dasharray="45.736210107110495,5.395710018149029" stroke-dashoffset="51.13192" stroke-miterlimit="10"/></g><g><path d="M1776.76 31.76c-.619 0-1.227-.163-1.763-.473-.536-.31-.98-.756-1.289-1.293-.308-.536-.47-1.145-.468-1.764V5.11H1760v26.2c0 3.926 1.561 7.696 4.338 10.472 2.776 2.777 6.546 4.338 10.472 4.338h6.65V31.76z" fill="#faa624"/><path d="M1784.66 33.28h1.11s4.45.61 4.45-4.35V5.11" fill="none" stroke="#faa623" stroke-width="3" stroke-dasharray="28.543850886924865,3.567981360865602" stroke-dashoffset="32.111832" stroke-miterlimit="10"/><path d="M1784.66 38.88h3.34s8.38.67 8.38-9.26V0" fill="none" stroke="#faa623" stroke-width="3" stroke-dasharray="41.9221664429775,5.240270805372178" stroke-dashoffset="47.162437" stroke-miterlimit="10"/><path d="M1784.63 44.41h3.58s14.29.72 14.29-16V5.11" fill="none" stroke="#faa623" stroke-width="3" stroke-dasharray="47.08103381158288,4.050886313676649" stroke-dashoffset="51.13192" stroke-miterlimit="10"/></g><g><path d="M1820.76 31.76c-.619 0-1.227-.163-1.763-.473-.536-.31-.98-.756-1.289-1.293-.308-.536-.47-1.145-.468-1.764V5.11H1804v26.2c0 3.926 1.561 7.696 4.338 10.472 2.776 2.777 6.546 4.338 10.472 4.338h6.65V31.76z" fill="#faa624"/><path d="M1828.66 33.28h1.11s4.45.61 4.45-4.35V5.11" fill="none" stroke="#faa623" stroke-width="3" stroke-dasharray="29.380096518377734,2.7317357294127333" stroke-dashoffset="32.111832" stroke-miterlimit="10"/><path d="M1828.66 38.88h3.34s8.38.67 8.38-9.26V0" fill="none" stroke="#faa623" stroke-width="3" stroke-dasharray="43.15035491298659,4.012082335363084" stroke-dashoffset="47.162437" stroke-miterlimit="10"/><path d="M1828.63 44.41h3.58s14.29.72 14.29-16V5.11" fill="none" stroke="#faa623" stroke-width="3" stroke-dasharray="48.174858464877445,2.957061660382082" stroke-dashoffset="51.13192" stroke-miterlimit="10"/></g><g><path d="M1864.76 31.76c-.619 0-1.227-.163-1.763-.473-.536-.31-.98-.756-1.289-1.293-.308-.536-.47-1.145-.468-1.764V5.11H1848v26.2c0 3.926 1.561 7.696 4.338 10.472 2.776 2.777 6.546 4.338 10.472 4.338h6.65V31.76z" fill="#faa624"/><path d="M1872.66 33.28h1.11s4.45.61 4.45-4.35V5.11" fill="none" stroke="#faa623" stroke-width="3" stroke-dasharray="30.104842732303563,2.006989515486904" stroke-dashoffset="32.111832" stroke-miterlimit="10"/><path d="M1872.66 38.88h3.34s8.38.67 8.38-9.26V0" fill="none" stroke="#faa623" stroke-width="3" stroke-dasharray="44.21478492032782,2.9476523280218547" stroke-dashoffset="47.162437" stroke-miterlimit="10"/><path d="M1872.63 44.41h3.58s14.29.72 14.29-16V5.11" fill="none" stroke="#faa623" stroke-width="3" stroke-dasharray="49.05431448570879,2.077605639550742" stroke-dashoffset="51.13192" stroke-miterlimit="10"/></g><g><path d="M1908.76 31.76c-.619 0-1.227-.163-1.763-.473-.536-.31-.98-.756-1.289-1.293-.308-.536-.47-1.145-.468-1.764V5.11H1892v26.2c0 3.926 1.561 7.696 4.338 10.472 2.776 2.777 6.546 4.338 10.472 4.338h6.65V31.76z" fill="#faa624"/><path d="M1916.66 33.28h1.11s4.45.61 4.45-4.35V5.11" fill="none" stroke="#faa623" stroke-width="3" stroke-dasharray="30.718089528702343,1.3937427190881246" stroke-dashoffset="32.111832" stroke-miterlimit="10"/><path d="M1916.66 38.88h3.34s8.38.67 8.38-9.26V0" fill="none" stroke="#faa623" stroke-width="3" stroke-dasharray="45.115456465001174,2.0469807833485056" stroke-dashoffset="47.162437" stroke-miterlimit="10"/><path d="M1916.63 44.41h3.58s14.29.72 14.29-16V5.11" fill="none" stroke="#faa623" stroke-width="3" stroke-dasharray="49.74853471600348,1.3833854092560431" stroke-dashoffset="51.13192" stroke-miterlimit="10"/></g><g><path d="M1952.76 31.76c-.619 0-1.227-.163-1.763-.473-.536-.31-.98-.756-1.289-1.293-.308-.536-.47-1.145-.468-1.764V5.11H1936v26.2c0 3.926 1.561 7.696 4.338 10.472 2.776 2.777 6.546 4.338 10.472 4.338h6.65V31.76z" fill="#faa624"/><path d="M1960.66 33.28h1.11s4.45.61 4.45-4.35V5.11" fill="none" stroke="#faa623" stroke-width="3" stroke-dasharray="31.219836907574063,0.8919953402164023" stroke-dashoffset="32.111832" stroke-miterlimit="10"/><path d="M1960.66 38.88h3.34s8.38.67 8.38-9.26V0" fill="none" stroke="#faa623" stroke-width="3" stroke-dasharray="45.85236954700663,1.310067701343047" stroke-dashoffset="47.162437" stroke-miterlimit="10"/><path d="M1960.63 44.41h3.58s14.29.72 14.29-16V5.11" fill="none" stroke="#faa623" stroke-width="3" stroke-dasharray="50.281015212996174,0.8509049122633533" stroke-dashoffset="51.13192" stroke-miterlimit="10"/></g><g><path d="M1996.76 31.76c-.619 0-1.227-.163-1.763-.473-.536-.31-.98-.756-1.289-1.293-.308-.536-.47-1.145-.468-1.764V5.11H1980v26.2c0 3.926 1.561 7.696 4.338 10.472 2.776 2.777 6.546 4.338 10.472 4.338h6.65V31.76z" fill="#faa624"/><path d="M2004.66 33.28h1.11s4.45.61 4.45-4.35V5.11" fill="none" stroke="#faa623" stroke-width="3" stroke-dasharray="31.61008486891874,0.501747378871726" stroke-dashoffset="32.111832" stroke-miterlimit="10"/><path d="M2004.66 38.88h3.34s8.38.67 8.38-9.26V0" fill="none" stroke="#faa623" stroke-width="3" stroke-dasharray="46.42552416634421,0.7369130820054637" stroke-dashoffset="47.162437" stroke-miterlimit="10"/><path d="M2004.63 44.41h3.58s14.29.72 14.29-16V5.11" fill="none" stroke="#faa623" stroke-width="3" stroke-dasharray="50.67095697198591,0.46096315327361803" stroke-dashoffset="51.13192" stroke-miterlimit="10"/></g><g><path d="M2040.76 31.76c-.619 0-1.227-.163-1.763-.473-.536-.31-.98-.756-1.289-1.293-.308-.536-.47-1.145-.468-1.764V5.11H2024v26.2c0 3.926 1.561 7.696 4.338 10.472 2.776 2.777 6.546 4.338 10.472 4.338h6.65V31.76z" fill="#faa624"/><path d="M2048.66 33.28h1.11s4.45.61 4.45-4.35V5.11" fill="none" stroke="#faa623" stroke-width="3" stroke-dasharray="31.888833412736368,0.22299883505409968" stroke-dashoffset="32.111832" stroke-miterlimit="10"/><path d="M2048.66 38.88h3.34s8.38.67 8.38-9.26V0" fill="none" stroke="#faa623" stroke-width="3" stroke-dasharray="46.83492032301392,0.3275169253357605" stroke-dashoffset="47.162437" stroke-miterlimit="10"/><path d="M2048.63 44.41h3.58s14.29.72 14.29-16V5.11" fill="none" stroke="#faa623" stroke-width="3" stroke-dasharray="50.934242580005396,0.19767754525413286" stroke-dashoffset="51.13192" stroke-miterlimit="10"/></g><g><path d="M2084.76 31.76c-.619 0-1.227-.163-1.763-.473-.536-.31-.98-.756-1.289-1.293-.308-.536-.47-1.145-.468-1.764V5.11H2068v26.2c0 3.926 1.561 7.696 4.338 10.472 2.776 2.777 6.546 4.338 10.472 4.338h6.65V31.76z" fill="#faa624"/><path d="M2092.66 33.28h1.11s4.45.61 4.45-4.35V5.11" fill="none" stroke="#faa623" stroke-width="3" stroke-dasharray="32.05608253902694,0.0557497087635267" stroke-dashoffset="32.111832" stroke-miterlimit="10"/><path d="M2092.66 38.88h3.34s8.38.67 8.38-9.26V0" fill="none" stroke="#faa623" stroke-width="3" stroke-dasharray="47.08055801701573,0.08187923133394273" stroke-dashoffset="47.162437" stroke-miterlimit="10"/><path d="M2092.63 44.41h3.58s14.29.72 14.29-16V5.11" fill="none" stroke="#faa623" stroke-width="3" stroke-dasharray="51.08415599559592,0.0477641296636066" stroke-dashoffset="51.13192" stroke-miterlimit="10"/></g><g><path d="M2128.76 31.76c-.619 0-1.227-.163-1.763-.473-.536-.31-.98-.756-1.289-1.293-.308-.536-.47-1.145-.468-1.764V5.11H2112v26.2c0 3.926 1.561 7.696 4.338 10.472 2.776 2.777 6.546 4.338 10.472 4.338h6.65V31.76z" fill="#faa624"/><path d="M2136.66 33.28h1.11s4.45.61 4.45-4.35V5.11" fill="none" stroke="#faa623" stroke-width="3" stroke-dasharray="0,32.11183224779047" stroke-dashoffset="32.111832" stroke-miterlimit="10"/><path d="M2136.66 38.88h3.34s8.38.67 8.38-9.26V0" fill="none" stroke="#faa623" stroke-width="3" stroke-dasharray="0,47.162437248349676" stroke-dashoffset="47.162437" stroke-miterlimit="10"/><path d="M2136.63 44.41h3.58s14.29.72 14.29-16V5.11" fill="none" stroke="#faa623" stroke-width="3" stroke-dasharray="0,51.131920125259526" stroke-dashoffset="51.13192" stroke-miterlimit="10"/></g></svg>